#define im_width 32
#define im_height 32
static char im_bits[] = {
0x24,0x49,0x00,0x00,0x49,0x92,0x92,0x24,0x24,0x49,0x04,0x00,0x92,0x24,0x21,
0x49,0x44,0x92,0x0a,0x00,0x12,0x21,0x40,0x2a,0xa4,0x94,0x0a,0x00,0x02,0x52,
0xa2,0x44,0xa8,0xa8,0x04,0x10,0x12,0xd5,0x15,0x01,0x44,0x50,0x4a,0x24,0x92,
0xaa,0x15,0x80,0x20,0x50,0xb5,0x0a,0x8a,0xaa,0x2a,0x20,0x20,0x50,0x95,0x08,
0x8a,0xaa,0x26,0x42,0x20,0xd0,0x02,0x10,0x8a,0xaa,0x94,0x04,0x20,0x50,0x00,
0x40,0x8a,0x12,0x25,0x09,0x20,0x48,0x00,0x20,0x02,0x01,0x49,0x02,0xa8,0x6a,
0x52,0x49,0x80,0xda,0xae,0x00,0x0a,0x04,0x00,0x95,0xa0,0x52,0xb5,0x00,0x04,
0xad,0x2d,0x10,0x10,0x00,0x40,0x45,0x42,0x52,0x02,0x00,0x10,0x00,0x48,0x48,
0x84,0x24,0x01,0x01,0x20,0x00,0x48,0x24
};
